<svg width="241" height="33" viewBox="0 0 241 33" fill="none" xmlns="http://www.w3.org/2000/svg">
<path d="M14.868 32H1.584V29.696L4.968 26.78V7.412L0.936 6.296L2.232 3.704H15.516V5.972L12.096 8.924V28.256L16.164 29.372L14.868 32ZM49.9286 32H41.3246V28.868L37.2566 32.072C36.7766 32.264 36.1766 32.36 35.4566 32.36C33.0806 32.36 31.3646 31.784 30.3086 30.632C29.2526 29.456 28.7246 28.052 28.7246 26.42C28.7246 25.484 29.0126 24.56 29.5886 23.648C30.1646 22.736 30.9806 21.896 32.0366 21.128H41.3246V20.984C41.3246 19.736 40.9766 18.812 40.2806 18.212C39.6086 17.588 38.7086 17.276 37.5806 17.276C35.9246 17.276 33.6086 17.852 30.6326 19.004L29.5526 16.772L34.5206 12.776C35.7926 12.368 37.2926 12.164 39.0206 12.164C41.8526 12.164 44.0486 12.8 45.6086 14.072C47.1926 15.344 47.9846 17.192 47.9846 19.616V28.112L51.2246 29.372L49.9286 32ZM37.5086 26.96C38.6366 26.96 39.9086 26.504 41.3246 25.592V23.756H35.6726C35.4086 24.188 35.2766 24.656 35.2766 25.16C35.2766 25.712 35.4686 26.156 35.8526 26.492C36.2606 26.804 36.8126 26.96 37.5086 26.96ZM87.8991 31.892H79.3311V19.976C79.3311 19.112 79.1871 18.5 78.8991 18.14C78.6351 17.78 78.1551 17.6 77.4591 17.6C76.4271 17.6 75.4071 17.924 74.3991 18.572V28.328L77.3511 29.3L76.0191 31.928H67.7391V20.012C67.7391 19.148 67.5951 18.536 67.3071 18.176C67.0431 17.816 66.5631 17.636 65.8671 17.636C64.8351 17.636 63.8151 17.96 62.8071 18.608V28.364L65.7591 29.336L64.4271 31.964H52.9431V29.66L56.1471 26.924V19.364L52.9431 17.312V15.008L60.8631 11.84L62.3031 15.872L66.4791 12.452C67.0551 12.26 67.7151 12.164 68.4591 12.164C69.8751 12.164 71.0631 12.476 72.0231 13.1C73.0071 13.724 73.6911 14.588 74.0751 15.692L78.0711 12.452C78.6471 12.26 79.3071 12.164 80.0511 12.164C81.8751 12.164 83.3151 12.668 84.3711 13.676C85.4511 14.66 85.9911 16.004 85.9911 17.708V28.328L89.2311 29.264L87.8991 31.892Z" fill="white" fill-opacity="0.91"/>
<path d="M115.871 17.888C117.071 17.888 118.007 17.444 118.679 16.556C119.375 15.668 119.723 14.444 119.723 12.884C119.723 11.084 119.291 9.62 118.427 8.492C117.563 7.364 116.291 6.8 114.611 6.8C113.555 6.8 112.571 7.124 111.659 7.772V28.076L118.103 29.372L116.807 32H101.147V29.696L104.531 27.032V7.52L100.499 6.296L101.795 3.704H108.311C110.399 3.704 112.451 3.632 114.467 3.488C115.907 3.392 116.987 3.344 117.707 3.344C119.627 3.344 121.331 3.716 122.819 4.46C124.307 5.18 125.459 6.188 126.275 7.484C127.091 8.756 127.499 10.184 127.499 11.768C127.499 13.496 126.815 15.128 125.447 16.664C124.103 18.176 122.399 19.376 120.335 20.264C118.295 21.128 116.303 21.512 114.359 21.416L112.847 20.48L114.143 17.888H115.871ZM149.808 32H141.204V28.868L137.136 32.072C136.656 32.264 136.056 32.36 135.336 32.36C132.96 32.36 131.244 31.784 130.188 30.632C129.132 29.456 128.604 28.052 128.604 26.42C128.604 25.484 128.892 24.56 129.468 23.648C130.044 22.736 130.86 21.896 131.916 21.128H141.204V20.984C141.204 19.736 140.856 18.812 140.16 18.212C139.488 17.588 138.588 17.276 137.46 17.276C135.804 17.276 133.488 17.852 130.512 19.004L129.432 16.772L134.4 12.776C135.672 12.368 137.172 12.164 138.9 12.164C141.732 12.164 143.928 12.8 145.488 14.072C147.072 15.344 147.864 17.192 147.864 19.616V28.112L151.104 29.372L149.808 32ZM137.388 26.96C138.516 26.96 139.788 26.504 141.204 25.592V23.756H135.552C135.288 24.188 135.156 24.656 135.156 25.16C135.156 25.712 135.348 26.156 135.732 26.492C136.14 26.804 136.692 26.96 137.388 26.96ZM163.91 32H152.102V29.696L155.306 26.96V8.024L152.102 5.9V3.596L159.41 0.571999H161.966V28.328L165.206 29.372L163.91 32ZM178.043 32H166.235V29.696L169.439 26.96V8.024L166.235 5.9V3.596L173.543 0.571999H176.099V28.328L179.339 29.372L178.043 32ZM202.472 32H193.868V28.868L189.8 32.072C189.32 32.264 188.72 32.36 188 32.36C185.624 32.36 183.908 31.784 182.852 30.632C181.796 29.456 181.268 28.052 181.268 26.42C181.268 25.484 181.556 24.56 182.132 23.648C182.708 22.736 183.524 21.896 184.58 21.128H193.868V20.984C193.868 19.736 193.52 18.812 192.824 18.212C192.152 17.588 191.252 17.276 190.124 17.276C188.468 17.276 186.152 17.852 183.176 19.004L182.096 16.772L187.064 12.776C188.336 12.368 189.836 12.164 191.564 12.164C194.396 12.164 196.592 12.8 198.152 14.072C199.736 15.344 200.528 17.192 200.528 19.616V28.112L203.768 29.372L202.472 32ZM190.052 26.96C191.18 26.96 192.452 26.504 193.868 25.592V23.756H188.216C187.952 24.188 187.82 24.656 187.82 25.16C187.82 25.712 188.012 26.156 188.396 26.492C188.804 26.804 189.356 26.96 190.052 26.96ZM227.014 14.828L217.726 32H212.65L207.43 19.256L203.83 17.168V14.864L212.326 11.84L213.694 17.276L217.51 26.456L221.614 18.608L216.358 15.152L217.654 12.524H227.014V14.828ZM239.302 32H227.494V29.696L230.698 26.96V19.292L227.494 17.168V14.9L234.802 11.84H237.358V28.328L240.598 29.372L239.302 32ZM234.01 0.967998C235.138 0.967998 236.05 1.328 236.746 2.048C237.466 2.744 237.826 3.608 237.826 4.64C237.826 5.384 237.562 6.08 237.034 6.728C236.53 7.352 235.882 7.856 235.09 8.24C234.322 8.624 233.578 8.816 232.858 8.816C231.754 8.816 230.83 8.468 230.086 7.772C229.366 7.052 229.006 6.176 229.006 5.144C229.006 4.4 229.258 3.716 229.762 3.092C230.29 2.444 230.95 1.928 231.742 1.544C232.534 1.16 233.29 0.967998 234.01 0.967998Z" fill="#FFF700" fill-opacity="0.91"/>
</svg>
